<?xml version="1.0" encoding="UTF-8"?>
<svg version="1.1" xmlns="http://www.w3.org/2000/svg" width="320" height="275">
<path d="M0 0 C105.6 0 211.2 0 320 0 C320 90.75 320 181.5 320 275 C214.4 275 108.8 275 0 275 C0 184.25 0 93.5 0 0 Z " fill="#000000" transform="translate(0,0)"/>
<path d="M0 0 C23.4196875 -0.12375 23.4196875 -0.12375 47.3125 -0.25 C52.22423096 -0.28641602 57.13596191 -0.32283203 62.1965332 -0.36035156 C68.24060059 -0.37841797 68.24060059 -0.37841797 71.07902527 -0.3817749 C73.0419122 -0.3878772 75.00478508 -0.40186175 76.96757507 -0.42230225 C102.85297773 -0.67816393 102.85297773 -0.67816393 112.3125 8.0625 C120.07621248 15.72715395 123.55574459 22.53358112 123.75 33.4375 C123.62312049 44.04545897 119.99255028 52.02875023 113 60 C110.51953125 62.01953125 110.51953125 62.01953125 107.8125 63.8125 C106.93207031 64.41707031 106.05164063 65.02164063 105.14453125 65.64453125 C96.83290295 69.22730767 88.81610397 66.09415478 80.61120605 63.55194092 C77.20474134 62.49813721 73.7851805 61.48831009 70.3671875 60.47265625 C69.67330933 60.26539917 68.97943115 60.05814209 68.26452637 59.84460449 C61.12738523 57.72066757 53.95242037 55.76574587 46.75 53.875 C45.03804443 53.41468384 45.03804443 53.41468384 43.29150391 52.94506836 C42.24140137 52.67186768 41.19129883 52.39866699 40.109375 52.1171875 C39.19124023 51.87597168 38.27310547 51.63475586 37.32714844 51.38623047 C34.85305364 50.78937872 34.85305364 50.78937872 32 52 C30.25489981 54.51163271 30.25489981 54.51163271 28.6015625 57.65234375 C28.1263063 58.51358604 28.1263063 58.51358604 27.64144897 59.39222717 C26.6271449 61.23597008 25.6262059 63.08661815 24.625 64.9375 C23.95914886 66.14953692 23.2924903 67.36113065 22.625 68.57226562 C18.92832734 75.30561328 15.36707471 82.09560523 12 89 C15.63506417 83.8776745 19.20847635 78.72579474 22.640625 73.46484375 C23.23617187 72.55412109 23.83171875 71.64339844 24.4453125 70.70507812 C25.66918893 68.82820269 26.88777658 66.94786988 28.1015625 65.06445312 C28.69195312 64.16533203 29.28234375 63.26621094 29.890625 62.33984375 C30.41688477 61.52894287 30.94314453 60.71804199 31.48535156 59.88256836 C33 58 33 58 36 57 C38.54931641 57.46557617 38.54931641 57.46557617 41.6015625 58.29296875 C42.72304687 58.59146729 43.84453125 58.88996582 45 59.19750977 C46.19625 59.52420654 47.3925 59.85090332 48.625 60.1875 C51.09591929 60.84798323 53.56727346 61.50684169 56.0390625 62.1640625 C57.23950195 62.48407227 58.43994141 62.80408203 59.67675781 63.13378906 C63.10854959 64.02829371 66.54799414 64.84776627 70.00927734 65.6184082 C72.65025609 66.20755958 75.27891757 66.84171073 77.90625 67.48876953 C79.40372629 67.85440798 80.90410732 68.20823089 82.40625 68.55419922 C92.62194955 70.96821001 99.94060224 72.9516241 105.73828125 82.2890625 C106.07682129 82.86430664 106.41536133 83.43955078 106.76416016 84.03222656 C109.40029384 88.2296263 112.51504681 92.10983762 115.5 96.0625 C116.72405402 97.69525583 117.94316235 99.33173633 119.15625 100.97265625 C119.68025391 101.67656494 120.20425781 102.38047363 120.74414062 103.10571289 C122 105 122 105 123 108 C114.77662638 108.20902731 106.55437161 108.3686854 98.3289938 108.46630955 C94.50898002 108.513179 90.69079011 108.5766806 86.87182617 108.67895508 C83.18230005 108.77713865 79.49452125 108.83063466 75.80378914 108.85389519 C74.39979606 108.87045751 72.99589314 108.90280514 71.59264946 108.95157051 C60.6087935 109.31791076 60.6087935 109.31791076 56.60241699 106.03591919 C54.81419922 103.7656334 53.37542821 101.53680845 52 99 C51.37351563 98.06671875 50.74703125 97.1334375 50.1015625 96.171875 C49.61429688 95.37265625 49.12703125 94.5734375 48.625 93.75 C45.91377607 89.40343466 43.09969276 85.15063613 40.1875 80.9375 C39.43855469 79.85339844 38.68960938 78.76929687 37.91796875 77.65234375 C36.109516 75.00375019 36.109516 75.00375019 34 73 C27.26429029 82.80476479 20.53905834 92.61384236 13.98486328 102.54125977 C11.10042338 106.89957662 11.10042338 106.89957662 10 108 C6.7 108 3.4 108 0 108 C0 72.36 0 36.72 0 0 Z " fill="#9C9C9C" transform="translate(100,45)"/>
<path d="M0 0 C2.75804963 0.49565831 5.45935697 1.05780106 8.1875 1.6875 C9.00395996 1.87248047 9.82041992 2.05746094 10.66162109 2.24804688 C16.67643854 3.63508705 22.59995978 5.25323897 28.51953125 7.00390625 C31.60135157 7.8859087 34.69152295 8.68910063 37.8059082 9.44726562 C39.81966374 9.93925019 41.82767115 10.45096027 43.8359375 10.96484375 C46.70443449 11.69526702 49.57945313 12.33528233 52.4765625 12.94140625 C61.48286193 14.97670045 66.53574902 17.14560643 71.66796875 25.25390625 C72.01907715 25.83543457 72.37018555 26.41696289 72.73193359 27.01611328 C75.40719455 31.20155236 78.51079374 35.09864224 81.5 39.0625 C82.72392769 40.69535053 83.94302539 42.33183759 85.15625 43.97265625 C85.68025391 44.67656494 86.20425781 45.38047363 86.74414062 46.10571289 C88 48 88 48 89 51 C80.77662638 51.20902731 72.55437161 51.3686854 64.3289938 51.46630955 C60.50898002 51.513179 56.69079011 51.5766806 52.87182617 51.67895508 C49.18230005 51.77713865 45.49452125 51.83063466 41.80378914 51.85389519 C40.39979606 51.87045751 38.99589314 51.90280514 37.59264946 51.95157051 C26.6087935 52.31791076 26.6087935 52.31791076 22.60241699 49.03591919 C20.81419922 46.7656334 19.37542821 44.53680845 18 42 C17.37351563 41.06671875 16.74703125 40.1334375 16.1015625 39.171875 C15.37066406 37.97304687 15.37066406 37.97304687 14.625 36.75 C11.91377607 32.40343466 9.09969276 28.15063613 6.1875 23.9375 C5.43855469 22.85339844 4.68960938 21.76929687 3.91796875 20.65234375 C2.109516 18.00375019 2.109516 18.00375019 0 16 C-2.475 19.465 -2.475 19.465 -5 23 C-6.65 22.67 -8.3 22.34 -10 22 C-10 21.34 -10 20.68 -10 20 C-10.66 20 -11.32 20 -12 20 C-11.39235744 17.00265444 -10.46199224 14.88962107 -8.75 12.36328125 C-8.3065625 11.70392578 -7.863125 11.04457031 -7.40625 10.36523438 C-6.9421875 9.68783203 -6.478125 9.01042969 -6 8.3125 C-5.5359375 7.62349609 -5.071875 6.93449219 -4.59375 6.22460938 C-1.18332067 1.18332067 -1.18332067 1.18332067 0 0 Z " fill="#9D9D9D" transform="translate(134,102)"/>
<path d="M0 0 C8.77958471 -0.13912397 17.55878909 -0.24568229 26.33923626 -0.31087303 C30.41657681 -0.34216447 34.49316235 -0.38459463 38.57006836 -0.45263672 C42.50586659 -0.51791142 46.44093951 -0.55372251 50.37723732 -0.56926346 C51.87761669 -0.58033564 53.37795708 -0.60195836 54.87802696 -0.63438034 C66.57209262 -0.87704052 66.57209262 -0.87704052 70.05728149 1.26361084 C72.37104912 3.86642908 72.99458131 5.72364676 73.0625 9.1875 C71.82732753 12.45707418 70.96402165 13.24006474 68 15 C65.50689697 15.36076355 65.50689697 15.36076355 62.68066406 15.34057617 C61.61986633 15.34034958 60.5590686 15.34012299 59.46612549 15.33988953 C58.32746033 15.32440567 57.18879517 15.30892181 56.015625 15.29296875 C54.84489441 15.28872391 53.67416382 15.28447906 52.46795654 15.28010559 C48.72840384 15.26331175 44.98938985 15.22565704 41.25 15.1875 C38.71485153 15.17245413 36.17969462 15.15876556 33.64453125 15.14648438 C27.42950367 15.11340585 21.21479032 15.06319883 15 15 C14.87399414 13.8749707 14.74798828 12.74994141 14.61816406 11.59082031 C14.41406227 7.97840663 14.41406227 7.97840663 12.109375 6.546875 C11.33078125 6.28390625 10.5521875 6.0209375 9.75 5.75 C8.94175781 5.44964844 8.13351563 5.14929688 7.30078125 4.83984375 C6.54152344 4.56269531 5.78226562 4.28554687 5 4 C1.9375 2.3125 1.9375 2.3125 0 1 C0 0.67 0 0.34 0 0 Z " fill="#010101" transform="translate(118,71)"/>
<path d="M0 0 C31.68 0 63.36 0 96 0 C96 0.33 96 0.66 96 1 C64.65 1 33.3 1 1 1 C1.33 34.66 1.66 68.32 2 103 C4.31 99.37 6.62 95.74 9 92 C10.66666667 90.33333333 12.33333333 88.66666667 14 87 C16.44789594 83.40256802 18.74050336 79.71807661 21 76 C22.485 76.495 22.485 76.495 24 77 C24 77.66 24 78.32 24 79 C25.65 79.33 27.3 79.66 29 80 C25.02900726 86.34876043 20.99669537 92.62708322 16.60546875 98.6953125 C14.98865295 100.93007368 14.98865295 100.93007368 13.80078125 103.1796875 C12.6875 105.125 12.6875 105.125 10 108 C6.7 108 3.4 108 0 108 C0 72.36 0 36.72 0 0 Z " fill="#858585" transform="translate(100,45)"/>
<path d="M0 0 C0.7528125 -0.00128906 1.505625 -0.00257813 2.28125 -0.00390625 C5.52856083 0.82507275 6.5915514 1.78271072 8.5 4.5625 C9.1116783 7.71929191 9.10383546 10.79285488 9.0625 14 C9.08634766 14.84626953 9.11019531 15.69253906 9.13476562 16.56445312 C9.12432795 21.00742322 8.93813347 22.9839865 6.18359375 26.62109375 C3.5 28.5625 3.5 28.5625 0 29.1875 C-4.5095399 28.38222502 -5.72675853 27.18221146 -8.5 23.5625 C-9.19457678 20.53900507 -9.15528135 17.65186817 -9.0625 14.5625 C-9.07345703 13.7684375 -9.08441406 12.974375 -9.09570312 12.15625 C-9.04653798 8.22303855 -8.75181732 5.99715128 -6.74609375 2.53515625 C-4.24282493 0.3366332 -3.27945805 -0.09546368 0 0 Z " fill="#878787" transform="translate(98.5,161.4375)"/>
<path d="M0 0 C11 0 11 0 15 2 C16.50662097 5.01324195 16.17770373 7.68286377 16 11 C15.34 11.66 14.68 12.32 14 13 C14.66 13.33 15.32 13.66 16 14 C16.08114106 15.77007714 16.13925505 17.54122098 16.1875 19.3125 C16.23970703 20.79169922 16.23970703 20.79169922 16.29296875 22.30078125 C16 25 16 25 13 28 C8.71 28 4.42 28 0 28 C0 18.76 0 9.52 0 0 Z " fill="#848484" transform="translate(209,162)"/>
<path d="M0 0 C12 0 12 0 16 3 C16.390625 5.26171875 16.390625 5.26171875 16.25 7.6875 C16.21390625 8.49574219 16.1778125 9.30398437 16.140625 10.13671875 C16.07101563 11.05904297 16.07101563 11.05904297 16 12 C15.34 12 14.68 12 14 12 C14.99 13.485 14.99 13.485 16 15 C16.1953125 18.13671875 16.1953125 18.13671875 16.125 21.6875 C16.10695313 22.86699219 16.08890625 24.04648438 16.0703125 25.26171875 C16.04710938 26.16535156 16.02390625 27.06898438 16 28 C10.66666667 28 5.33333333 28 0 28 C0 18.76 0 9.52 0 0 Z " fill="#878787" transform="translate(6,162)"/>
<path d="M0 0 C11.35294118 0 11.35294118 0 15 2 C17.41816166 4.41816166 16.18547019 10.68777819 16.1875 13.9375 C16.19974609 14.96552734 16.21199219 15.99355469 16.22460938 17.05273438 C16.22750977 18.52516602 16.22750977 18.52516602 16.23046875 20.02734375 C16.23457764 20.93218506 16.23868652 21.83702637 16.24291992 22.76928711 C16 25 16 25 14 27 C9.32380812 27.28034724 4.68783389 27.08523334 0 27 C0 18.09 0 9.18 0 0 Z " fill="#858585" transform="translate(293,162)"/>
<path d="M0 0 C11 0 11 0 15 2 C16.60725635 5.21451269 16.05748185 8.43612536 16 12 C15.34 12 14.68 12 14 12 C14.99 13.485 14.99 13.485 16 15 C16.1953125 18.13671875 16.1953125 18.13671875 16.125 21.6875 C16.10695313 22.86699219 16.08890625 24.04648438 16.0703125 25.26171875 C16.04710938 26.16535156 16.02390625 27.06898438 16 28 C10.25 28.125 10.25 28.125 8 27 C5.36 27 2.72 27 0 27 C0 18.09 0 9.18 0 0 Z " fill="#7C7C7C" transform="translate(66,162)"/>
<path d="M0 0 C0.66 0.00128906 1.32 0.00257813 2 0.00390625 C4.6654241 0.58176186 6.00325303 1.58585952 8 3.4375 C8.51757812 5.64233398 8.51757812 5.64233398 8.53125 8.18359375 C8.53640625 9.10333984 8.5415625 10.02308594 8.546875 10.97070312 C8.53140625 11.92912109 8.5159375 12.88753906 8.5 13.875 C8.51546875 14.82955078 8.5309375 15.78410156 8.546875 16.76757812 C8.50812846 23.68867911 8.50812846 23.68867911 6.21875 27.0625 C3.91324996 28.49126059 2.68924351 29.00525243 0 29 C-0.66 29.02191406 -1.32 29.04382813 -2 29.06640625 C-5.31168552 28.02503639 -6.27020769 26.41152888 -8 23.4375 C-8.57051011 20.23462979 -8.5593265 17.12065401 -8.5 13.875 C-8.51546875 13.02486328 -8.5309375 12.17472656 -8.546875 11.29882812 C-8.52235654 7.39119901 -8.48775324 5.1391801 -6.21875 1.875 C-3.87480448 0.35638741 -2.75832604 -0.08081033 0 0 Z " fill="#949494" transform="translate(123,161.5625)"/>
<path d="M0 0 C4.29 0 8.58 0 13 0 C16 3 16 3 16.36328125 4.9375 C16.34652344 5.618125 16.32976562 6.29875 16.3125 7 C16.30863281 7.680625 16.30476563 8.36125 16.30078125 9.0625 C16 11 16 11 14 14 C14.66 14 15.32 14 16 14 C16 18.29 16 22.58 16 27 C14.02 27 12.04 27 10 27 C10 23.04 10 19.08 10 15 C9.34 15 8.68 15 8 15 C8 18.96 8 22.92 8 27 C5.36 27 2.72 27 0 27 C0 18.09 0 9.18 0 0 Z " fill="#8D8D8D" transform="translate(140,204)"/>
<path d="M0 0 C12 0 12 0 15 2 C15.29296875 4.3828125 15.29296875 4.3828125 15.1875 7.125 C15.16042969 8.03507813 15.13335937 8.94515625 15.10546875 9.8828125 C15.07066406 10.58148438 15.03585938 11.28015625 15 12 C14.34 12 13.68 12 13 12 C13 12.66 13 13.32 13 14 C13.66 14 14.32 14 15 14 C16.32229189 16.64458379 16.09677194 18.67761301 16.0625 21.625 C16.05347656 22.62789062 16.04445312 23.63078125 16.03515625 24.6640625 C16.02355469 25.43492187 16.01195312 26.20578125 16 27 C13.69 27 11.38 27 9 27 C9 23.04 9 19.08 9 15 C8.34 15 7.68 15 7 15 C7 18.96 7 22.92 7 27 C4.69 27 2.38 27 0 27 C0 18.09 0 9.18 0 0 Z " fill="#878787" transform="translate(165,204)"/>
<path d="M0 0 C2.31 0 4.62 0 7 0 C7 7.59 7 15.18 7 23 C7.66 23 8.32 23 9 23 C9 15.41 9 7.82 9 0 C11.31 0 13.62 0 16 0 C16.08714316 3.91652632 16.14043985 7.83280311 16.1875 11.75 C16.21263672 12.86117187 16.23777344 13.97234375 16.26367188 15.1171875 C16.27333984 16.18710938 16.28300781 17.25703125 16.29296875 18.359375 C16.3086792 19.34389648 16.32438965 20.32841797 16.34057617 21.34277344 C15.94513371 24.42807504 15.14276349 25.77794681 13 28 C10.84375 28.4609375 10.84375 28.4609375 8.5 28.375 C7.7265625 28.36210937 6.953125 28.34921875 6.15625 28.3359375 C4 28 4 28 1 26 C-0.01973129 22.94080612 -0.11533602 20.87581975 -0.09765625 17.67578125 C-0.09443359 16.64775391 -0.09121094 15.61972656 -0.08789062 14.56054688 C-0.07951172 13.48869141 -0.07113281 12.41683594 -0.0625 11.3125 C-0.05798828 10.22904297 -0.05347656 9.14558594 -0.04882812 8.02929688 C-0.03703743 5.35280915 -0.02058063 2.67643223 0 0 Z " fill="#959595" transform="translate(234,162)"/>
<path d="M0 0 C2.31 0 4.62 0 7 0 C7 7.59 7 15.18 7 23 C7.66 23 8.32 23 9 23 C9 15.41 9 7.82 9 0 C11.31 0 13.62 0 16 0 C16 7.92 16 15.84 16 24 C15.34 24 14.68 24 14 24 C13.67 24.99 13.34 25.98 13 27 C11.39667209 27.08121924 9.79215974 27.13929134 8.1875 27.1875 C6.84751953 27.23970703 6.84751953 27.23970703 5.48046875 27.29296875 C3 27 3 27 1.36328125 25.828125 C-0.52291357 23.29878639 -0.34268156 21.58893852 -0.29296875 18.45703125 C-0.28330078 17.38388672 -0.27363281 16.31074219 -0.26367188 15.20507812 C-0.23853516 14.08552734 -0.21339844 12.96597656 -0.1875 11.8125 C-0.16719727 10.11577148 -0.16719727 10.11577148 -0.14648438 8.38476562 C-0.11109958 5.58936683 -0.06172948 2.79492108 0 0 Z " fill="#969696" transform="translate(116,204)"/>
<path d="M0 0 C1.671875 1.140625 1.671875 1.140625 3 3 C3.29296875 5.91796875 3.29296875 5.91796875 3.1875 9.1875 C3.16042969 10.27417969 3.13335937 11.36085937 3.10546875 12.48046875 C3.07066406 13.31191406 3.03585938 14.14335937 3 15 C4.65 14.34 6.3 13.68 8 13 C8 14.65 8 16.3 8 18 C7.34 18 6.68 18 6 18 C6.33 19.65 6.66 21.3 7 23 C5.88625 22.979375 4.7725 22.95875 3.625 22.9375 C0.16784079 22.73619282 0.16784079 22.73619282 -2 24 C-7.21653972 24.44396083 -7.21653972 24.44396083 -9.875 22.9375 C-11.62409203 19.92517484 -11.30401551 17.40497373 -11 14 C-10.34 13.01 -9.68 12.02 -9 11 C-9.20625 9.865625 -9.4125 8.73125 -9.625 7.5625 C-10 4 -10 4 -8.4375 1.5625 C-5.34111489 -0.42236225 -3.61581862 -0.53852618 0 0 Z " fill="#8E8E8E" transform="translate(182,166)"/>
<path d="M0 0 C0.70125 0.07863281 1.4025 0.15726563 2.125 0.23828125 C4 0.6875 4 0.6875 6 2.6875 C6.125 5.8125 6.125 5.8125 6 8.6875 C4.02 8.6875 2.04 8.6875 0 8.6875 C0 7.3675 0 6.0475 0 4.6875 C-0.66 4.6875 -1.32 4.6875 -2 4.6875 C-0.9739178 8.56381053 0.47998738 10.16292521 3.625 12.4375 C5.87821987 14.24477011 6.86325645 15.13387853 7.5625 17.96484375 C7.71051827 23.67279819 7.71051827 23.67279819 5.77734375 26.43359375 C3.4078504 28.10525829 1.81633488 28.08793889 -1.0625 28.0625 C-1.94035156 28.07023437 -2.81820312 28.07796875 -3.72265625 28.0859375 C-4.47417969 27.95445312 -5.22570312 27.82296875 -6 27.6875 C-8.29013653 24.2522952 -8.17842973 22.702169 -8 18.6875 C-6.35 18.6875 -4.7 18.6875 -3 18.6875 C-2.87625 19.326875 -2.7525 19.96625 -2.625 20.625 C-2.41875 21.305625 -2.2125 21.98625 -2 22.6875 C-1.34 23.0175 -0.68 23.3475 0 23.6875 C-1.32862302 17.97442102 -3.52289981 16.11676823 -8 12.6875 C-9.52491998 9.63766004 -9.23562548 7.0451631 -9 3.6875 C-6.45946945 0.22314015 -4.1503824 -0.51116842 0 0 Z " fill="#939393" transform="translate(101,203.3125)"/>
<path d="M0 0 C3.96 0 7.92 0 12 0 C12 1.98 12 3.96 12 6 C10.68 6 9.36 6 8 6 C8 7.32 8 8.64 8 10 C9.32 10.33 10.64 10.66 12 11 C12 12.65 12 14.3 12 16 C10.68 16 9.36 16 8 16 C8 17.65 8 19.3 8 21 C9.65 21 11.3 21 13 21 C13 22.98 13 24.96 13 27 C8.71 27 4.42 27 0 27 C0 18.09 0 9.18 0 0 Z " fill="#8E8E8E" transform="translate(189,204)"/>
<path d="M0 0 C4.29 0 8.58 0 13 0 C13 1.98 13 3.96 13 6 C11.35 6 9.7 6 8 6 C8 7.65 8 9.3 8 11 C9.32 11 10.64 11 12 11 C12 12.65 12 14.3 12 16 C10.68 16 9.36 16 8 16 C8 17.98 8 19.96 8 22 C9.65 22 11.3 22 13 22 C13 23.65 13 25.3 13 27 C8.71 27 4.42 27 0 27 C0 18.09 0 9.18 0 0 Z " fill="#8E8E8E" transform="translate(30,162)"/>
<path d="M0 0 C2.31 0 4.62 0 7 0 C7.33 1.32 7.66 2.64 8 4 C8.33 2.68 8.66 1.36 9 0 C11.31 0 13.62 0 16 0 C15.10959012 4.17734846 14.22107958 8.29774722 12.9375 12.375 C11.68610778 17.21371659 11.34187296 22.02484882 11 27 C8.69 27 6.38 27 4 27 C3.96261719 26.16597656 3.92523438 25.33195312 3.88671875 24.47265625 C3.5203261 18.20087622 2.86270756 12.75673644 0.6328125 6.87890625 C-0.15715185 4.53339482 -0.23753465 2.45452468 0 0 Z " fill="#909090" transform="translate(208,204)"/>
<path d="M0 0 C3.96 0 7.92 0 12 0 C12 1.98 12 3.96 12 6 C10.35 6 8.7 6 7 6 C7 7.65 7 9.3 7 11 C8.32 11 9.64 11 11 11 C11 12.65 11 14.3 11 16 C9.68 16 8.36 16 7 16 C7 19.96 7 23.92 7 28 C4.69 28 2.38 28 0 28 C0 18.76 0 9.52 0 0 Z " fill="#959595" transform="translate(140,162)"/>
<path d="M0 0 C2.31 0 4.62 0 7 0 C7 7.26 7 14.52 7 22 C8.32 22 9.64 22 11 22 C11 23.98 11 25.96 11 28 C7.37 28 3.74 28 0 28 C0 18.76 0 9.52 0 0 Z " fill="#949494" transform="translate(274,162)"/>
<path d="M0 0 C2.31 0 4.62 0 7 0 C7 9.24 7 18.48 7 28 C4.69 28 2.38 28 0 28 C0 18.76 0 9.52 0 0 Z " fill="#949494" transform="translate(258,162)"/>
<path d="M0 0 C3.3 0 6.6 0 10 0 C9.01 1.485 9.01 1.485 8 3 C7.34 3 6.68 3 6 3 C6 5.31 6 7.62 6 10 C7.65 10 9.3 10 11 10 C10.01 10.495 10.01 10.495 9 11 C8.34786708 13.02463255 8.34786708 13.02463255 8 15 C7.34 14.67 6.68 14.34 6 14 C6 16.64 6 19.28 6 22 C6.99 22.33 7.98 22.66 9 23 C8.67 23.66 8.34 24.32 8 25 C5.36 25 2.72 25 0 25 C0 16.75 0 8.5 0 0 Z " fill="#9F9F9F" transform="translate(210,163)"/>
<path d="M0 0 C3.3 0 6.6 0 10 0 C10.33 1.98 10.66 3.96 11 6 C10.34 6 9.68 6 9 6 C9 5.34 9 4.68 9 4 C8.01 4 7.02 4 6 4 C6 5.65 6 7.3 6 9 C7.32 9.33 8.64 9.66 10 10 C10 10.66 10 11.32 10 12 C9.34 12 8.68 12 8 12 C8 12.66 8 13.32 8 14 C7.01 14 6.02 14 5 14 C5 17.63 5 21.26 5 25 C3.35 24.67 1.7 24.34 0 24 C0 16.08 0 8.16 0 0 Z " fill="#9C9C9C" transform="translate(166,205)"/>
<path d="M0 0 C2.64 0 5.28 0 8 0 C7.649375 0.515625 7.29875 1.03125 6.9375 1.5625 C5.74514927 4.06582393 5.74514927 4.06582393 6.46875 7.15625 C7.03207358 11.2320618 6.888713 14.8417145 6.5625 18.9375 C6.48418945 19.96327148 6.48418945 19.96327148 6.40429688 21.00976562 C6.27630102 22.67371169 6.13912281 24.3369473 6 26 C4.02 26 2.04 26 0 26 C0 17.42 0 8.84 0 0 Z " fill="#A0A0A0" transform="translate(67,163)"/>
<path d="M0 0 C3.96 0 7.92 0 12 0 C12 0.33 12 0.66 12 1 C8.37 1 4.74 1 1 1 C1.33 3.97 1.66 6.94 2 10 C3.65 9.34 5.3 8.68 7 8 C7 14.6 7 21.2 7 28 C4.69 28 2.38 28 0 28 C0 18.76 0 9.52 0 0 Z " fill="#878787" transform="translate(6,162)"/>
<path d="M0 0 C1.32 0.33 2.64 0.66 4 1 C4.0868329 4.458176 4.14033282 7.91607344 4.1875 11.375 C4.22520508 12.85226563 4.22520508 12.85226563 4.26367188 14.359375 C4.27333984 15.30039063 4.28300781 16.24140625 4.29296875 17.2109375 C4.3086792 18.08024902 4.32438965 18.94956055 4.34057617 19.84521484 C4.22818604 20.55629395 4.1157959 21.26737305 4 22 C3.01 22.66 2.02 23.32 1 24 C-0.32 23.67 -1.64 23.34 -3 23 C-2.67 16.07 -2.34 9.14 -2 2 C-1.34 2 -0.68 2 0 2 C0 1.34 0 0.68 0 0 Z " fill="#9D9D9D" transform="translate(304,164)"/>
<path d="M0 0 C1.32 0.66 2.64 1.32 4 2 C4.33 1.34 4.66 0.68 5 0 C5.73524186 4.77907207 6.1324695 9.47612006 6.25 14.3125 C6.28867188 15.82263672 6.28867188 15.82263672 6.328125 17.36328125 C6 20 6 20 4.68359375 21.84375 C2.16941588 23.57042436 -0.03677025 23.19754865 -3 23 C-3 22.01 -3 21.02 -3 20 C-2.01 20 -1.02 20 0 20 C0 13.4 0 6.8 0 0 Z " fill="#9C9C9C" transform="translate(125,166)"/>
<path d="M0 0 C0.99 0.66 1.98 1.32 3 2 C2.4339206 5.96872801 1.26031762 8.53077573 -0.984375 11.8359375 C-1.59023437 12.73570313 -2.19609375 13.63546875 -2.8203125 14.5625 C-3.45710938 15.490625 -4.09390625 16.41875 -4.75 17.375 C-5.37132813 18.29539062 -5.99265625 19.21578125 -6.6328125 20.1640625 C-10.01709585 25.1619493 -13.46757676 30.10584108 -17 35 C-17.33 34.34 -17.66 33.68 -18 33 C-16.8918457 30.49731445 -16.8918457 30.49731445 -15.17578125 27.36328125 C-14.55896484 26.22826172 -13.94214844 25.09324219 -13.30664062 23.92382812 C-12.64205062 22.71998388 -11.97733609 21.51620836 -11.3125 20.3125 C-10.66659991 19.12864655 -10.02140916 17.94440579 -9.37695312 16.75976562 C-6.30841424 11.13992864 -3.20559287 5.54283526 0 0 Z " fill="#101010" transform="translate(128,102)"/>
<path d="M0 0 C7.05882353 -0.35294118 7.05882353 -0.35294118 10.5 0.9375 C12.94509198 4.29950148 12.30321243 7.98243527 12 12 C11.67 12 11.34 12 11 12 C10.67 10.02 10.34 8.04 10 6 C9.01 5.67 8.02 5.34 7 5 C6.67 10.61 6.34 16.22 6 22 C5.01 22.33 4.02 22.66 3 23 C3.00523682 22.44014404 3.01047363 21.88028809 3.01586914 21.3034668 C3.03666691 18.76482263 3.04966904 16.22619641 3.0625 13.6875 C3.07087891 12.80642578 3.07925781 11.92535156 3.08789062 11.01757812 C3.09272461 9.74624023 3.09272461 9.74624023 3.09765625 8.44921875 C3.10289307 7.66893311 3.10812988 6.88864746 3.11352539 6.0847168 C3.08137863 3.8038445 3.08137863 3.8038445 2 1 C1.34 0.67 0.68 0.34 0 0 Z " fill="#606060" transform="translate(119,162)"/>
<path d="M0 0 C2.97 0.495 2.97 0.495 6 1 C7.32229189 3.64458379 7.09677194 5.67761301 7.0625 8.625 C7.05347656 9.62789062 7.04445312 10.63078125 7.03515625 11.6640625 C7.02355469 12.43492187 7.01195312 13.20578125 7 14 C4.69 14 2.38 14 0 14 C0 9.38 0 4.76 0 0 Z " fill="#909090" transform="translate(174,217)"/>
<path d="M0 0 C0.66 0.66 1.32 1.32 2 2 C2.99 2 3.98 2 5 2 C5 6.29 5 10.58 5 15 C3.02 15 1.04 15 -1 15 C-1.02685412 12.68756208 -1.04632841 10.3750373 -1.0625 8.0625 C-1.07410156 6.77472656 -1.08570313 5.48695313 -1.09765625 4.16015625 C-1 1 -1 1 0 0 Z " fill="#9A9A9A" transform="translate(151,216)"/>
<path d="M0 0 C22.44 0 44.88 0 68 0 C68 0.33 68 0.66 68 1 C47.54 1 27.08 1 6 1 C6.33 1.99 6.66 2.98 7 4 C4.97954558 3.39816251 2.97888961 2.72693904 1 2 C0.67 1.34 0.34 0.68 0 0 Z " fill="#333333" transform="translate(118,71)"/>
<path d="M0 0 C3.63 0 7.26 0 11 0 C10.01 0.33 9.02 0.66 8 1 C8 1.99 8 2.98 8 4 C7.34 4 6.68 4 6 4 C6 4.99 6 5.98 6 7 C4.35 7.66 2.7 8.32 1 9 C1 14.28 1 19.56 1 25 C0.67 25 0.34 25 0 25 C0 16.75 0 8.5 0 0 Z " fill="#A1A1A1" transform="translate(7,163)"/>
<path d="M0 0 C0.66 0.33 1.32 0.66 2 1 C2.33926947 3.33247761 2.67240066 5.66585471 3 8 C3.66 8.66 4.32 9.32 5 10 C5 10.99 5 11.98 5 13 C-0.36842105 13.35789474 -0.36842105 13.35789474 -2.875 11.9375 C-4.58196395 8.99772876 -4.18799766 6.32129197 -4 3 C-2.68 2.67 -1.36 2.34 0 2 C0 1.34 0 0.68 0 0 Z " fill="#939393" transform="translate(175,177)"/>
<path d="M0 0 C0.66 0 1.32 0 2 0 C2 1.32 2 2.64 2 4 C3.32 4.33 4.64 4.66 6 5 C5.34 6.65 4.68 8.3 4 10 C1.69 10.33 -0.62 10.66 -3 11 C-2.979375 10.21625 -2.95875 9.4325 -2.9375 8.625 C-2.81315937 6.01885039 -2.81315937 6.01885039 -4 4 C-2.68 4 -1.36 4 0 4 C0 2.68 0 1.36 0 0 Z " fill="#2C2C2C" transform="translate(133,52)"/>
<path d="M0 0 C0.33 0.99 0.66 1.98 1 3 C2.65 3 4.3 3 6 3 C5.67 3.66 5.34 4.32 5 5 C4.34 5 3.68 5 3 5 C3.33 6.65 3.66 8.3 4 10 C3.34 10 2.68 10 2 10 C2 9.34 2 8.68 2 8 C0.35 8.66 -1.3 9.32 -3 10 C-3.66 7.69 -4.32 5.38 -5 3 C-3.68 3 -2.36 3 -1 3 C-0.67 2.01 -0.34 1.02 0 0 Z " fill="#232323" transform="translate(199,53)"/>
<path d="M0 0 C0.99 0.66 1.98 1.32 3 2 C3.29296875 4.1640625 3.29296875 4.1640625 3.1875 6.625 C3.16042969 7.44226563 3.13335937 8.25953125 3.10546875 9.1015625 C3.07066406 9.72804687 3.03585938 10.35453125 3 11 C1.35 11 -0.3 11 -2 11 C-2.28571429 3.57142857 -2.28571429 3.57142857 0 0 Z " fill="#9E9E9E" transform="translate(78,178)"/>
<path d="M0 0 C2.97 0 5.94 0 9 0 C9 1.65 9 3.3 9 5 C6.03 5 3.06 5 0 5 C0 3.35 0 1.7 0 0 Z " fill="#898989" transform="translate(50,176)"/>
<path d="M0 0 C0.66 0.33 1.32 0.66 2 1 C2 1.66 2 2.32 2 3 C3.32 3.33 4.64 3.66 6 4 C5.34 5.98 4.68 7.96 4 10 C1.03 9.505 1.03 9.505 -2 9 C-2.33 7.02 -2.66 5.04 -3 3 C-2.01 3 -1.02 3 0 3 C0 2.01 0 1.02 0 0 Z " fill="#282828" transform="translate(155,53)"/>
<path d="M0 0 C0.33 0.99 0.66 1.98 1 3 C3.01508358 3.73323796 3.01508358 3.73323796 5 4 C4.375 6.4375 4.375 6.4375 3 9 C-0.125 9.8125 -0.125 9.8125 -3 10 C-3.66 7.69 -4.32 5.38 -5 3 C-4.360625 2.87625 -3.72125 2.7525 -3.0625 2.625 C-2.0415625 2.315625 -2.0415625 2.315625 -1 2 C-0.67 1.34 -0.34 0.68 0 0 Z " fill="#252525" transform="translate(112,53)"/>
<path d="M0 0 C0.33 1.32 0.66 2.64 1 4 C2.65 4 4.3 4 6 4 C5.67 4.66 5.34 5.32 5 6 C4.34 6 3.68 6 3 6 C3.33 7.65 3.66 9.3 4 11 C3.21625 10.814375 2.4325 10.62875 1.625 10.4375 C-0.97089775 9.74037734 -0.97089775 9.74037734 -3 11 C-3 8.69 -3 6.38 -3 4 C-2.01 4 -1.02 4 0 4 C0 2.68 0 1.36 0 0 Z " fill="#202020" transform="translate(177,52)"/>
<path d="M0 0 C0.33 0 0.66 0 1 0 C1.60668323 5.54441063 -0.27689702 8.59688733 -3.5 12.875 C-3.92925781 13.46796875 -4.35851562 14.0609375 -4.80078125 14.671875 C-5.8546001 16.12380319 -6.92561516 17.56322345 -8 19 C-8.33 18.34 -8.66 17.68 -9 17 C-8.28735352 15.21240234 -8.28735352 15.21240234 -7.12890625 13.0859375 C-6.71962891 12.32539063 -6.31035156 11.56484375 -5.88867188 10.78125 C-5.45103516 9.9871875 -5.01339844 9.193125 -4.5625 8.375 C-4.12873047 7.57320313 -3.69496094 6.77140625 -3.24804688 5.9453125 C-2.17243012 3.95955849 -1.08952787 1.9781454 0 0 Z " fill="#151515" transform="translate(119,118)"/>
<path d="M0 0 C4.875 1.75 4.875 1.75 6 4 C5.01 4 4.02 4 3 4 C2.34 5.32 1.68 6.64 1 8 C-1.97 7.505 -1.97 7.505 -5 7 C-5 5 -5 5 -2.5 2.375 C-1.675 1.59125 -0.85 0.8075 0 0 Z " fill="#8E8E8E" transform="translate(205,49)"/>
<path d="M0 0 C0.86625 0.3403125 0.86625 0.3403125 1.75 0.6875 C1.42 1.3475 1.09 2.0075 0.75 2.6875 C-0.24 3.0175 -1.23 3.3475 -2.25 3.6875 C-2.58 5.6675 -2.91 7.6475 -3.25 9.6875 C-4.24 9.6875 -5.23 9.6875 -6.25 9.6875 C-6.5 6.375 -6.5 6.375 -6.25 2.6875 C-4.13578911 0.27125898 -3.2149628 -0.44652261 0 0 Z " fill="#666666" transform="translate(222.25,163.3125)"/>
<path d="M0 0 C6.15234375 -0.09765625 6.15234375 -0.09765625 8 0 C9 1 9 1 9.0625 3.5625 C9.041875 4.366875 9.02125 5.17125 9 6 C8.01 5.67 7.02 5.34 6 5 C6 3.68 6 2.36 6 1 C4.35 1 2.7 1 1 1 C1 2.98 1 4.96 1 7 C0.67 7 0.34 7 0 7 C0 4.69 0 2.38 0 0 Z " fill="#424242" transform="translate(92,221)"/>
<path d="M0 0 C1.65 0 3.3 0 5 0 C4.43628586 3.26954202 3.50037734 4.82575883 1 7 C0 6 0 6 -0.0625 2.9375 C-0.041875 1.968125 -0.02125 0.99875 0 0 Z " fill="#9D9D9D" transform="translate(93,222)"/>
<path d="M0 0 C0.66 0 1.32 0 2 0 C2 1.98 2 3.96 2 6 C0.35 6 -1.3 6 -3 6 C-2.42655063 3.13275314 -2.1385485 2.1385485 0 0 Z " fill="#989898" transform="translate(105,206)"/>
<path d="M0 0 C0.66 0.33 1.32 0.66 2 1 C2 1.66 2 2.32 2 3 C3.32 3.33 4.64 3.66 6 4 C4.576875 4.4640625 4.576875 4.4640625 3.125 4.9375 C0.13919592 5.87394742 0.13919592 5.87394742 -2 7 C-2.33 5.68 -2.66 4.36 -3 3 C-2.01 3 -1.02 3 0 3 C0 2.01 0 1.02 0 0 Z " fill="#222222" transform="translate(155,53)"/>
<path d="M0 0 C-1.1858237 3.37503669 -2.27573689 5.64722731 -5 8 C-4.74438677 5.6568787 -4.40729228 3.32156597 -4 1 C-2 0 -2 0 0 0 Z " fill="#0A0A0A" transform="translate(125,114)"/>
<path d="M0 0 C0 0.66 0 1.32 0 2 C0.66 2.33 1.32 2.66 2 3 C1.34 3 0.68 3 0 3 C-0.33 3.99 -0.66 4.98 -1 6 C-2.32 4.68 -3.64 3.36 -5 2 C-2 0 -2 0 0 0 Z " fill="#8D8D8D" transform="translate(101,216)"/>
<path d="M0 0 C0.66 0 1.32 0 2 0 C2 1.65 2 3.3 2 5 C1.34 5 0.68 5 0 5 C-0.33 5.66 -0.66 6.32 -1 7 C-1 3 -1 3 0 0 Z " fill="#7C7C7C" transform="translate(188,179)"/>
<path d="M0 0 C1.25541557 3.76624671 0.37061958 5.37188934 -1 9 C-1.33 9 -1.66 9 -2 9 C-2.66 6.69 -3.32 4.38 -4 2 C-2.68 2 -1.36 2 0 2 C0 1.34 0 0.68 0 0 Z " fill="#383838" transform="translate(198,54)"/>
</svg>
